# xmcd
#
# Track frame offsets:
# 150
# 32820
# 66750
# 110850
# 141785
# 179585
# 213420
# 249730
# 281455
#
# Disc length: 4126 seconds
#
# Revision: 0
# Processed by: cddbd v1.5.1PL2 Copyright (c) Steve Scherf et al.
# Submitted via: Audion 3.0.2 (http://www.panic.com/audion/)
#
DISCID=8e101c09
DTITLE=Lynn Grabhorn - Excuse My! Your Life Is Waiting (Disk 4 OF 5)
DYEAR=1900
DGENRE=
TTITLE0=From No Biz To Big Biz
TTITLE1=The Quick Shoot
TTITLE2=Relationships And Other Treasures
TTITLE3=Forget It
TTITLE4=Fire Up Hope
TTITLE5=No Matter What
TTITLE6=Getting Better
TTITLE7=Winning The Lottery
TTITLE8=Everything Is A Cool Creation
EXTD=
EXTT0=
EXTT1=
EXTT2=
EXTT3=
EXTT4=
EXTT5=
EXTT6=
EXTT7=
EXTT8=
PLAYORDER=
